<mxfile host="app.diagrams.net" modified="2023-09-22T09:31:12.335Z" agent="Mozilla/5.0 (Windows NT 10.0; Win64; x64) AppleWebKit/537.36 (KHTML, like Gecko) Chrome/116.0.0.0 Safari/537.36" etag="xYTYMGHvZnBQ1f0o3hYH" version="21.6.8" type="github">
  <diagram name="第 1 页" id="URscyOJFW0bPHNXe5dwg">
    <mxGraphModel dx="1050" dy="630" grid="1" gridSize="10" guides="1" tooltips="1" connect="1" arrows="1" fold="1" page="1" pageScale="1" pageWidth="827" pageHeight="1169" math="0" shadow="0">
      <root>
        <mxCell id="0" />
        <mxCell id="1" parent="0" />
        <mxCell id="1ZQu3QUceMgZsvGPtBiz-6" style="edgeStyle=orthogonalEdgeStyle;rounded=0;orthogonalLoop=1;jettySize=auto;html=1;exitX=0.5;exitY=1;exitDx=0;exitDy=0;entryX=0.5;entryY=0;entryDx=0;entryDy=0;" edge="1" parent="1" source="1ZQu3QUceMgZsvGPtBiz-2" target="1ZQu3QUceMgZsvGPtBiz-3">
          <mxGeometry relative="1" as="geometry" />
        </mxCell>
        <mxCell id="1ZQu3QUceMgZsvGPtBiz-2" value="获取consumer方法级timeout" style="rounded=0;whiteSpace=wrap;html=1;" vertex="1" parent="1">
          <mxGeometry x="240" y="120" width="180" height="40" as="geometry" />
        </mxCell>
        <mxCell id="1ZQu3QUceMgZsvGPtBiz-7" style="edgeStyle=orthogonalEdgeStyle;rounded=0;orthogonalLoop=1;jettySize=auto;html=1;exitX=0.5;exitY=1;exitDx=0;exitDy=0;entryX=0.5;entryY=0;entryDx=0;entryDy=0;" edge="1" parent="1" source="1ZQu3QUceMgZsvGPtBiz-3" target="1ZQu3QUceMgZsvGPtBiz-5">
          <mxGeometry relative="1" as="geometry" />
        </mxCell>
        <mxCell id="1ZQu3QUceMgZsvGPtBiz-3" value="获取provider方法级timeout" style="rounded=0;whiteSpace=wrap;html=1;" vertex="1" parent="1">
          <mxGeometry x="240" y="200" width="180" height="40" as="geometry" />
        </mxCell>
        <mxCell id="1ZQu3QUceMgZsvGPtBiz-4" value="获取provider接口级timeout" style="rounded=0;whiteSpace=wrap;html=1;" vertex="1" parent="1">
          <mxGeometry x="240" y="360" width="180" height="40" as="geometry" />
        </mxCell>
        <mxCell id="1ZQu3QUceMgZsvGPtBiz-8" style="edgeStyle=orthogonalEdgeStyle;rounded=0;orthogonalLoop=1;jettySize=auto;html=1;exitX=0.5;exitY=1;exitDx=0;exitDy=0;" edge="1" parent="1" source="1ZQu3QUceMgZsvGPtBiz-5" target="1ZQu3QUceMgZsvGPtBiz-4">
          <mxGeometry relative="1" as="geometry" />
        </mxCell>
        <mxCell id="1ZQu3QUceMgZsvGPtBiz-5" value="获取consumer接口级timeout" style="rounded=0;whiteSpace=wrap;html=1;" vertex="1" parent="1">
          <mxGeometry x="240" y="280" width="180" height="40" as="geometry" />
        </mxCell>
      </root>
    </mxGraphModel>
  </diagram>
</mxfile>
